<?xml version="1.0" encoding="UTF-8" standalone="no"?>
<!-- Created with Inkscape (http://www.inkscape.org/) -->

<svg
   width="897.97498mm"
   height="455.09323mm"
   viewBox="0 0 897.97498 455.09323"
   version="1.1"
   id="svg1"
   xml:space="preserve"
   inkscape:export-filename="logo.svg"
   inkscape:export-xdpi="5.6599998"
   inkscape:export-ydpi="5.6599998"
   xmlns:inkscape="http://www.inkscape.org/namespaces/inkscape"
   xmlns:sodipodi="http://sodipodi.sourceforge.net/DTD/sodipodi-0.dtd"
   xmlns="http://www.w3.org/2000/svg"
   xmlns:svg="http://www.w3.org/2000/svg"><sodipodi:namedview
     id="namedview1"
     pagecolor="#ffffff"
     bordercolor="#000000"
     borderopacity="0.25"
     inkscape:showpageshadow="2"
     inkscape:pageopacity="0.0"
     inkscape:pagecheckerboard="0"
     inkscape:deskcolor="#d1d1d1"
     inkscape:document-units="mm"><inkscape:page
       x="-9.1322967e-08"
       y="-9.1253781e-07"
       width="897.97498"
       height="455.09323"
       id="page3"
       margin="0"
       bleed="0" /></sodipodi:namedview><defs
     id="defs1" /><g
     id="g1"
     inkscape:groupmode="layer"
     inkscape:label="1"
     transform="matrix(0.26458333,0,0,0.26458335,-2.1787847,-15.00019)"><path
       id="path1"
       d="m 28.3468,-793.71066 680.32344,771.03314 h 651.97666 l 405.3594,-459.21825 h 671.8193 l -734.1822,-771.03313 h -649.1422 l -402.52458,459.21824 z"
       style="fill:none;stroke:#4caf50;stroke-width:59.7766;stroke-linecap:butt;stroke-linejoin:miter;stroke-miterlimit:10;stroke-dasharray:none;stroke-opacity:1"
       transform="matrix(1.3333333,0,0,-1.3333333,58.748,66.308)" /><path
       id="path2"
       d="m 1192.3378,-637.8032 c 0,174.67599 62.1475,336.13808 162.9942,423.47234 l 54.328,-46.56831 c -126.0583,-87.33426 -203.7426,-248.79636 -203.7426,-423.47235 z"
       style="fill:#795548;fill-opacity:1;fill-rule:nonzero;stroke:none"
       transform="matrix(1.3333333,0,0,-1.3333333,58.748,66.308)" /><path
       id="path3"
       d="m 1233.0862,-931.19057 c -40.7484,0 -27.1641,-32.60095 -108.6611,-32.60095 -108.6611,0 -217.3272,162.99425 -217.3272,325.98832 0,108.66108 54.33318,244.49117 162.9943,244.49117 40.7483,0 134.1836,-29.40255 162.994,-58.21299 28.8105,28.81044 122.2457,58.21299 162.9941,58.21299 108.6611,0 162.9942,-135.83009 162.9942,-244.49117 0,-162.99407 -108.6661,-325.98832 -217.3272,-325.98832 -81.497,0 -67.9127,32.74412 -108.6611,32.74412 z"
       style="fill:#f44336;fill-opacity:1;fill-rule:nonzero;stroke:none"
       transform="matrix(1.3333333,0,0,-1.3333333,58.748,66.308)" /><path
       id="path4"
       d="m 1233.0862,-451.52502 c 28.8105,28.81044 122.2457,58.21299 162.9941,58.21299 108.6611,0 162.9942,-135.83009 162.9942,-244.49117 0,-162.99407 -108.6661,-325.98832 -217.3272,-325.98832 -81.497,0 -67.9127,32.60095 -108.6611,32.60095"
       style="fill:#e53935;fill-opacity:1;fill-rule:nonzero;stroke:none"
       transform="matrix(1.3333333,0,0,-1.3333333,58.748,66.308)" /><path
       id="path5"
       d="m 1254.5892,-350.54268 c -44.4961,113.88754 -178.5629,191.29082 -299.44043,172.88152 44.49613,-113.88756 178.56293,-191.29084 299.44043,-172.88152"
       style="fill:#4caf50;fill-opacity:1;fill-rule:nonzero;stroke:none"
       transform="matrix(1.3333333,0,0,-1.3333333,58.748,66.308)" /><path
       id="path6"
       d="M 1254.5892,-350.54268 C 1133.7117,-368.952 999.6449,-291.54872 955.14877,-177.66116 Z"
       style="fill:#43a047;fill-opacity:1;fill-rule:nonzero;stroke:none"
       transform="matrix(1.3333333,0,0,-1.3333333,58.748,66.308)" /></g></svg>
